<svg aria-hidden="true" style="position: absolute; width: 0; height: 0; overflow: hidden;" version="1.1" xmlns="http://www.w3.org/2000/svg" xmlns:xlink="http://www.w3.org/1999/xlink">
<defs>
<symbol id="icon-instagram" viewBox="0 0 28 32">
<path d="M14.006 8.813c-3.975 0-7.181 3.206-7.181 7.181s3.206 7.181 7.181 7.181 7.181-3.206 7.181-7.181-3.206-7.181-7.181-7.181zM14.006 20.663c-2.569 0-4.669-2.094-4.669-4.669s2.094-4.669 4.669-4.669 4.669 2.094 4.669 4.669-2.1 4.669-4.669 4.669zM23.156 8.519c0 0.931-0.75 1.675-1.675 1.675-0.931 0-1.675-0.75-1.675-1.675s0.75-1.675 1.675-1.675 1.675 0.75 1.675 1.675zM27.913 10.219c-0.106-2.244-0.619-4.231-2.262-5.869-1.637-1.638-3.625-2.15-5.869-2.263-2.313-0.131-9.244-0.131-11.556 0-2.237 0.106-4.225 0.619-5.869 2.256s-2.15 3.625-2.263 5.869c-0.131 2.313-0.131 9.244 0 11.556 0.106 2.244 0.619 4.231 2.263 5.869s3.625 2.15 5.869 2.262c2.313 0.131 9.244 0.131 11.556 0 2.244-0.106 4.231-0.619 5.869-2.262 1.637-1.637 2.15-3.625 2.262-5.869 0.131-2.313 0.131-9.238 0-11.55zM24.925 24.25c-0.488 1.225-1.431 2.169-2.663 2.663-1.844 0.731-6.219 0.563-8.256 0.563s-6.419 0.163-8.256-0.563c-1.225-0.488-2.169-1.431-2.663-2.663-0.731-1.844-0.563-6.219-0.563-8.256s-0.163-6.419 0.563-8.256c0.487-1.225 1.431-2.169 2.663-2.662 1.844-0.731 6.219-0.563 8.256-0.563s6.419-0.162 8.256 0.563c1.225 0.487 2.169 1.431 2.663 2.662 0.731 1.844 0.563 6.219 0.563 8.256s0.169 6.419-0.563 8.256z"></path>
</symbol>
<symbol id="icon-tiktok" viewBox="0 0 28 32">
<path d="M28 13.119c-0.008 0-0.018 0-0.028 0-2.87 0-5.525-0.921-7.685-2.483l0.038 0.026v11.175c-0.002 5.611-4.551 10.159-10.162 10.159-5.613 0-10.162-4.55-10.162-10.163s4.55-10.162 10.162-10.162c0.494 0 0.979 0.035 1.454 0.103l-0.054-0.006v5.619c-0.418-0.136-0.9-0.215-1.4-0.215-2.575 0-4.662 2.087-4.662 4.663s2.087 4.663 4.662 4.663c2.574 0 4.661-2.086 4.662-4.66v-21.838h5.5c-0 0.015-0 0.033-0 0.051 0 0.473 0.043 0.935 0.126 1.384l-0.007-0.047c0.406 2.115 1.638 3.885 3.339 4.995l0.029 0.018c1.177 0.787 2.624 1.256 4.182 1.256 0.002 0 0.004 0 0.006 0h-0z"></path>
</symbol>
<symbol id="icon-youtube" viewBox="0 0 36 32">
<path d="M34.356 7.756c-0.394-1.481-1.55-2.644-3.019-3.037-2.663-0.719-13.338-0.719-13.338-0.719s-10.675 0-13.338 0.719c-1.469 0.394-2.625 1.556-3.019 3.037-0.713 2.681-0.713 8.269-0.713 8.269s0 5.587 0.713 8.269c0.394 1.481 1.55 2.594 3.019 2.988 2.662 0.719 13.338 0.719 13.338 0.719s10.675 0 13.337-0.719c1.469-0.394 2.625-1.512 3.019-2.988 0.712-2.681 0.712-8.269 0.712-8.269s0-5.588-0.712-8.269zM14.512 21.1v-10.15l8.919 5.075-8.919 5.075z"></path>
</symbol>
<symbol id="icon-telegram" viewBox="0 0 31 32">
<path d="M15.5 0.5c-8.563 0-15.5 6.938-15.5 15.5s6.938 15.5 15.5 15.5 15.5-6.938 15.5-15.5-6.938-15.5-15.5-15.5zM22.688 11.044c-0.231 2.45-1.244 8.4-1.756 11.144-0.219 1.163-0.644 1.55-1.056 1.587-0.9 0.081-1.581-0.594-2.456-1.169-1.363-0.894-2.137-1.45-3.456-2.325-1.531-1.006-0.537-1.563 0.331-2.469 0.231-0.238 4.194-3.844 4.269-4.169 0.012-0.044 0.019-0.194-0.075-0.275s-0.225-0.050-0.319-0.031q-0.206 0.044-6.537 4.319-0.925 0.637-1.681 0.619c-0.556-0.012-1.619-0.313-2.412-0.569-0.969-0.313-1.744-0.481-1.675-1.019q0.050-0.419 1.156-0.856 6.775-2.95 9.037-3.894c4.306-1.787 5.2-2.1 5.781-2.113 0.131 0 0.413 0.031 0.6 0.181 0.119 0.105 0.199 0.251 0.218 0.416l0 0.003c0.023 0.134 0.037 0.289 0.037 0.447 0 0.061-0.002 0.121-0.006 0.18l0-0.008z"></path>
</symbol>
</defs>
</svg>
